<?xml version="1.0" standalone="no"?>
<!DOCTYPE svg PUBLIC "-//W3C//DTD SVG 20010904//EN"
 "http://www.w3.org/TR/2001/REC-SVG-20010904/DTD/svg10.dtd">
<svg version="1.0" xmlns="http://www.w3.org/2000/svg"
 width="421.000000pt" height="421.000000pt" viewBox="0 0 421.000000 421.000000"
 preserveAspectRatio="xMidYMid meet">
<metadata>
Created by potrace 1.11, written by Peter Selinger 2001-2013
</metadata>
<g transform="translate(0.000000,421.000000) scale(0.100000,-0.100000)"
fill="#000000" stroke="none">
<path d="M1900 4099 c-282 -29 -580 -127 -823 -274 -265 -158 -486 -370 -650
-620 -158 -241 -255 -491 -309 -795 -18 -101 -18 -509 0 -610 40 -226 97 -400
189 -585 293 -587 847 -991 1498 -1092 149 -23 441 -23 590 0 566 88 1070 411
1378 882 157 241 255 492 309 795 18 101 18 509 0 610 -66 371 -206 683 -429
960 -78 96 -246 258 -346 333 -402 302 -912 446 -1407 396z"/>
</g>
</svg>
