<?xml version="1.0" standalone="no"?>
<!DOCTYPE svg PUBLIC "-//W3C//DTD SVG 20010904//EN"
 "http://www.w3.org/TR/2001/REC-SVG-20010904/DTD/svg10.dtd">
<svg version="1.0" xmlns="http://www.w3.org/2000/svg"
 width="380.000000pt" height="380.000000pt" viewBox="0 0 380.000000 380.000000"
 preserveAspectRatio="xMidYMid meet">
<metadata>
Created by potrace 1.11, written by Peter Selinger 2001-2013
</metadata>
<g transform="translate(0.000000,380.000000) scale(0.100000,-0.100000)"
fill="#000000" stroke="none">
<path d="M490 3575 l0 -75 215 0 215 0 0 -1465 0 -1465 -215 0 -215 0 0 -75 0
-75 760 0 760 0 0 -140 0 -140 -90 0 c-89 0 -90 0 -90 -25 l0 -25 260 0 c143
0 260 3 260 6 0 3 -5 14 -10 25 -9 16 -22 19 -90 19 l-80 0 0 140 0 140 419 0
419 0 6 63 c3 34 8 181 11 327 3 146 8 341 12 433 l6 168 -63 -3 -63 -3 -67
-205 c-91 -281 -149 -391 -256 -495 -29 -28 -77 -63 -107 -79 -59 -29 -180
-55 -264 -56 l-53 0 0 291 0 292 84 -5 c70 -4 91 -9 124 -30 49 -33 85 -101
108 -208 16 -77 18 -80 45 -80 l29 0 0 148 c0 81 -3 164 -6 184 l-7 38 -458 0
-459 0 0 -132 c0 -73 -3 -157 -7 -186 l-6 -53 33 3 c32 3 34 5 50 73 40 174
115 245 258 245 l52 0 0 -290 0 -290 -285 0 -285 0 0 720 0 720 550 0 551 0
-3 78 -3 77 -547 3 -548 2 0 665 0 665 448 0 c383 0 456 -2 503 -16 92 -28
151 -64 226 -139 96 -98 157 -222 238 -482 l59 -193 65 0 64 0 -7 168 c-3 92
-8 284 -11 427 -3 143 -8 288 -11 323 l-6 62 -1259 0 -1259 0 0 -75z"/>
<path d="M2882 2271 c-20 -12 -10 -46 13 -46 14 0 20 7 20 24 0 27 -13 35 -33
22z"/>
<path d="M2663 2152 c-38 -18 -42 -29 -10 -28 21 1 22 -3 25 -77 3 -73 1 -78
-20 -87 -17 -6 -5 -9 47 -8 44 0 61 3 45 7 -24 7 -25 10 -26 95 -1 106 -11
122 -61 98z"/>
<path d="M2753 2158 c-31 -15 -29 -24 8 -32 46 -9 49 -8 49 13 0 15 -22 35
-33 30 -1 0 -12 -5 -24 -11z"/>
<path d="M2878 2150 c-39 -15 -52 -33 -20 -28 15 3 17 -7 20 -72 2 -62 0 -77
-14 -87 -15 -11 -10 -13 36 -13 45 0 51 2 37 13 -13 9 -17 32 -19 107 l-3 96
-37 -16z"/>
<path d="M3060 2154 c-19 -8 -43 -25 -52 -37 -20 -25 -24 -97 -8 -128 13 -24
61 -49 95 -49 24 0 85 25 85 35 0 2 -22 1 -49 -2 -40 -5 -52 -2 -69 15 -46 46
-36 146 16 159 20 5 29 1 40 -15 14 -22 46 -29 56 -13 9 14 -18 39 -49 45 -17
3 -45 -1 -65 -10z"/>
<path d="M2470 299 c-53 -21 -81 -69 -41 -69 12 0 25 11 33 28 8 16 21 27 33
27 16 0 21 -8 23 -42 l3 -43 -55 -24 c-47 -21 -56 -29 -56 -50 0 -36 33 -51
73 -35 31 13 31 13 7 19 -35 8 -38 43 -5 58 36 17 38 16 33 -17 -3 -18 2 -38
12 -51 16 -22 17 -22 51 -4 34 18 34 18 9 24 -24 5 -25 10 -30 88 -6 101 -23
118 -90 91z"/>
<path d="M2700 303 c-8 -3 -27 -17 -42 -31 -73 -68 -22 -192 79 -192 34 0 88
31 103 61 19 34 6 107 -22 136 -25 25 -87 39 -118 26z m55 -19 c38 -15 60
-118 35 -165 -15 -27 -61 -25 -89 5 -31 33 -40 106 -17 141 16 25 39 31 71 19z"/>
</g>
</svg>
